<mxfile host="app.diagrams.net" modified="2021-04-12T17:14:59.548Z" agent="5.0 (Windows)" etag="mmoaaY6RVgrQcixPNPN_" version="14.5.10" type="github">
  <diagram name="Page-1" id="e7e014a7-5840-1c2e-5031-d8a46d1fe8dd">
    <mxGraphModel dx="1185" dy="636" grid="1" gridSize="10" guides="1" tooltips="1" connect="1" arrows="1" fold="1" page="1" pageScale="1" pageWidth="1169" pageHeight="826" background="#ffffff" math="0" shadow="0">
      <root>
        <mxCell id="0" />
        <mxCell id="1" parent="0" />
        <mxCell id="2" value="Thread 1" style="swimlane;whiteSpace=wrap" parent="1" vertex="1">
          <mxGeometry x="164.5" y="128" width="355.5" height="570" as="geometry" />
        </mxCell>
        <mxCell id="5" value="" style="ellipse;shape=startState;fillColor=#000000;strokeColor=#ff0000;" parent="2" vertex="1">
          <mxGeometry x="166.75" y="74" width="30" height="30" as="geometry" />
        </mxCell>
        <mxCell id="6" value="" style="edgeStyle=elbowEdgeStyle;elbow=horizontal;verticalAlign=bottom;endArrow=open;endSize=8;strokeColor=#FF0000;endFill=1;rounded=0" parent="2" source="5" edge="1">
          <mxGeometry x="166.75" y="74" as="geometry">
            <mxPoint x="182.25" y="144" as="targetPoint" />
          </mxGeometry>
        </mxCell>
        <mxCell id="3pouyzQZ-qLpTRXUodt2-41" value="Nicht angemeldet" style="rounded=1;whiteSpace=wrap;html=1;" vertex="1" parent="2">
          <mxGeometry x="121.75" y="146" width="120" height="60" as="geometry" />
        </mxCell>
        <mxCell id="3pouyzQZ-qLpTRXUodt2-42" value="Angemeldet" style="rounded=1;whiteSpace=wrap;html=1;" vertex="1" parent="2">
          <mxGeometry x="121.75" y="306" width="120" height="60" as="geometry" />
        </mxCell>
        <mxCell id="3pouyzQZ-qLpTRXUodt2-47" value="Anmeldedaten&#xa;korrekt" style="edgeStyle=elbowEdgeStyle;elbow=horizontal;verticalAlign=bottom;endArrow=open;endSize=8;strokeColor=#FF0000;endFill=1;rounded=0;exitX=0.5;exitY=1;exitDx=0;exitDy=0;entryX=0.5;entryY=0;entryDx=0;entryDy=0;" edge="1" parent="2" source="3pouyzQZ-qLpTRXUodt2-41" target="3pouyzQZ-qLpTRXUodt2-42">
          <mxGeometry x="41.75" y="34" as="geometry">
            <mxPoint x="247.25" y="296" as="targetPoint" />
            <mxPoint x="191.75" y="114" as="sourcePoint" />
            <mxPoint y="10" as="offset" />
          </mxGeometry>
        </mxCell>
        <mxCell id="3pouyzQZ-qLpTRXUodt2-49" value="" style="shape=waypoint;size=6;pointerEvents=1;points=[];fillColor=none;resizable=0;rotatable=0;perimeter=centerPerimeter;snapToPoint=1;strokeWidth=6;" vertex="1" parent="2">
          <mxGeometry x="161.75" y="456" width="40" height="40" as="geometry" />
        </mxCell>
        <mxCell id="3pouyzQZ-qLpTRXUodt2-48" value="" style="ellipse;shape=startState;fillColor=none;" vertex="1" parent="2">
          <mxGeometry x="166.75" y="461" width="30" height="30" as="geometry" />
        </mxCell>
        <mxCell id="3pouyzQZ-qLpTRXUodt2-45" value="&lt;div&gt;Beenden der &lt;br&gt;&lt;/div&gt;&lt;div&gt;Anwendung&lt;/div&gt;" style="endArrow=open;html=1;exitX=0.5;exitY=1;exitDx=0;exitDy=0;rounded=0;strokeColor=#FF0000;edgeStyle=elbowEdgeStyle;endFill=0;endSize=8;" edge="1" parent="2" source="3pouyzQZ-qLpTRXUodt2-42" target="3pouyzQZ-qLpTRXUodt2-48">
          <mxGeometry width="50" height="50" relative="1" as="geometry">
            <mxPoint x="191.75" y="186" as="sourcePoint" />
            <mxPoint x="182.25" y="436" as="targetPoint" />
            <Array as="points">
              <mxPoint x="182.75" y="406" />
            </Array>
          </mxGeometry>
        </mxCell>
        <mxCell id="3pouyzQZ-qLpTRXUodt2-56" value="Abmelden&#xa;SchaltflÃ¤che" style="edgeStyle=elbowEdgeStyle;elbow=horizontal;verticalAlign=bottom;endArrow=open;endSize=8;strokeColor=#FF0000;endFill=1;rounded=0;exitX=0;exitY=0.5;exitDx=0;exitDy=0;entryX=0;entryY=0.5;entryDx=0;entryDy=0;" edge="1" parent="2" source="3pouyzQZ-qLpTRXUodt2-42" target="3pouyzQZ-qLpTRXUodt2-41">
          <mxGeometry x="41.75" y="34" as="geometry">
            <mxPoint x="191.75" y="316" as="targetPoint" />
            <mxPoint x="191.75" y="216.0000000000001" as="sourcePoint" />
            <mxPoint x="-44" y="10" as="offset" />
            <Array as="points">
              <mxPoint x="77.75" y="256" />
            </Array>
          </mxGeometry>
        </mxCell>
        <mxCell id="3pouyzQZ-qLpTRXUodt2-57" value="&lt;div&gt;Beenden der &lt;br&gt;&lt;/div&gt;&lt;div&gt;Anwendung&lt;/div&gt;" style="endArrow=open;html=1;exitX=1;exitY=0.5;exitDx=0;exitDy=0;rounded=0;strokeColor=#FF0000;edgeStyle=elbowEdgeStyle;endFill=0;endSize=8;" edge="1" parent="2" source="3pouyzQZ-qLpTRXUodt2-41" target="3pouyzQZ-qLpTRXUodt2-48">
          <mxGeometry x="-0.4916" width="50" height="50" relative="1" as="geometry">
            <mxPoint x="191.75" y="376" as="sourcePoint" />
            <mxPoint x="192.75" y="471.03337045290436" as="targetPoint" />
            <Array as="points">
              <mxPoint x="277.75" y="276" />
              <mxPoint x="257.75" y="276" />
              <mxPoint x="192.75" y="416" />
            </Array>
            <mxPoint as="offset" />
          </mxGeometry>
        </mxCell>
      </root>
    </mxGraphModel>
  </diagram>
</mxfile>
